<svg xmlns="http://www.w3.org/2000/svg" viewBox="0 0 1200 630" preserveAspectRatio="xMidYMid slice">
  <rect width="1200" height="630" fill="#1a2438"/>
  <line x1="0" y1="180" x2="1200" y2="180" stroke="rgba(245,238,222,0.18)" stroke-width="1"/>
  <line x1="0" y1="500" x2="1200" y2="500" stroke="rgba(245,238,222,0.18)" stroke-width="1"/>

  <text x="60" y="115" font-family="Inter, 'Noto Sans JP', sans-serif" font-size="14" font-weight="700" fill="#f5eede" letter-spacing="6">BUSINESS AI ／ COMPARISON</text>
  <text x="60" y="155" font-family="'Noto Serif JP', serif" font-size="40" font-weight="900" fill="#f5eede">AIアバター動画SaaS 4社比較</text>

  <g transform="translate(60, 230)">
    <g>
      <rect width="240" height="240" fill="#243250" stroke="#f5eede" stroke-width="1.5"/>
      <rect y="0" width="240" height="32" fill="#f5eede"/>
      <text x="14" y="22" font-family="Inter, sans-serif" font-size="14" font-weight="900" fill="#1a2438" letter-spacing="2">HEYGEN</text>
      <circle cx="120" cy="125" r="44" fill="#3d5278" stroke="#f5eede" stroke-width="2"/>
      <circle cx="120" cy="115" r="14" fill="#f5eede"/>
      <path d="M 90 155 Q 120 130 150 155 L 150 175 L 90 175 Z" fill="#f5eede"/>
      <line x1="14" y1="200" x2="100" y2="200" stroke="rgba(245,238,222,0.5)" stroke-width="1"/>
      <line x1="14" y1="218" x2="140" y2="218" stroke="rgba(245,238,222,0.3)" stroke-width="1"/>
    </g>
    <g transform="translate(280, 0)">
      <rect width="240" height="240" fill="#243250" stroke="#f5eede" stroke-width="1.5"/>
      <rect y="0" width="240" height="32" fill="#f5eede"/>
      <text x="14" y="22" font-family="Inter, sans-serif" font-size="14" font-weight="900" fill="#1a2438" letter-spacing="2">SYNTHESIA</text>
      <circle cx="120" cy="125" r="44" fill="#3d5278" stroke="#f5eede" stroke-width="2"/>
      <circle cx="120" cy="115" r="14" fill="#f5eede"/>
      <path d="M 90 155 Q 120 130 150 155 L 150 175 L 90 175 Z" fill="#f5eede"/>
      <line x1="14" y1="200" x2="120" y2="200" stroke="rgba(245,238,222,0.5)" stroke-width="1"/>
      <line x1="14" y1="218" x2="160" y2="218" stroke="rgba(245,238,222,0.3)" stroke-width="1"/>
    </g>
    <g transform="translate(560, 0)">
      <rect width="240" height="240" fill="#243250" stroke="#f5eede" stroke-width="1.5"/>
      <rect y="0" width="240" height="32" fill="#f5eede"/>
      <text x="14" y="22" font-family="Inter, sans-serif" font-size="14" font-weight="900" fill="#1a2438" letter-spacing="2">D-ID</text>
      <circle cx="120" cy="125" r="44" fill="#3d5278" stroke="#f5eede" stroke-width="2"/>
      <circle cx="120" cy="115" r="14" fill="#f5eede"/>
      <path d="M 90 155 Q 120 130 150 155 L 150 175 L 90 175 Z" fill="#f5eede"/>
      <line x1="14" y1="200" x2="90" y2="200" stroke="rgba(245,238,222,0.5)" stroke-width="1"/>
      <line x1="14" y1="218" x2="120" y2="218" stroke="rgba(245,238,222,0.3)" stroke-width="1"/>
    </g>
    <g transform="translate(840, 0)">
      <rect width="240" height="240" fill="#e8a245" stroke="#f5eede" stroke-width="2"/>
      <rect y="0" width="240" height="32" fill="#1a2438"/>
      <text x="14" y="22" font-family="Inter, sans-serif" font-size="14" font-weight="900" fill="#e8a245" letter-spacing="2">社長スタジオ</text>
      <circle cx="120" cy="125" r="44" fill="#1a2438"/>
      <circle cx="120" cy="115" r="14" fill="#e8a245"/>
      <path d="M 90 155 Q 120 130 150 155 L 150 175 L 90 175 Z" fill="#e8a245"/>
      <text x="14" y="208" font-family="Inter, sans-serif" font-size="11" font-weight="900" fill="#1a2438" letter-spacing="3">JAPAN ／ NATIVE</text>
    </g>
  </g>

  <text x="60" y="600" font-family="Inter, sans-serif" font-size="14" font-weight="700" fill="rgba(245,238,222,0.5)" letter-spacing="4">DALE MEDIA</text>
  <text x="1140" y="600" font-family="Inter, sans-serif" font-size="14" font-weight="500" fill="rgba(245,238,222,0.4)" letter-spacing="3" text-anchor="end">経営者目線で評価</text>
</svg>
