<svg xmlns="http://www.w3.org/2000/svg" viewBox="0 0 1200 630" preserveAspectRatio="xMidYMid slice">
  <defs>
    <linearGradient id="bg5" x1="0" y1="0" x2="1" y2="1">
      <stop offset="0%" stop-color="#0e1f13"/>
      <stop offset="100%" stop-color="#162d1c"/>
    </linearGradient>
    <pattern id="g5" width="60" height="60" patternUnits="userSpaceOnUse">
      <path d="M 60 0 L 0 0 0 60" fill="none" stroke="rgba(63,163,85,0.08)" stroke-width="1"/>
    </pattern>
  </defs>
  <rect width="1200" height="630" fill="url(#bg5)"/>
  <rect width="1200" height="630" fill="url(#g5)"/>
  <rect x="0" y="0" width="14" height="630" fill="#2d7a3e"/>
  <rect x="60" y="60" width="120" height="3" fill="#3fa355"/>
  <text x="60" y="105" font-family="Inter, 'Noto Sans JP', sans-serif" font-size="22" font-weight="600" fill="#3fa355" letter-spacing="4">CASE STUDY ／ CONSTRUCTION</text>
  <text x="60" y="240" font-family="'Noto Sans JP', sans-serif" font-size="60" font-weight="900" fill="#ffffff">建築見積りを</text>
  <text x="60" y="320" font-family="'Noto Sans JP', sans-serif" font-size="60" font-weight="900" fill="#ffffff">AI で自動計算</text>
  <text x="60" y="430" font-family="'Noto Sans JP', sans-serif" font-size="42" font-weight="700" fill="#3fa355">作成時間 −60% / 乖離 −15%</text>
  <text x="60" y="495" font-family="'Noto Sans JP', sans-serif" font-size="22" font-weight="500" fill="rgba(255,255,255,0.65)">図面解析×コスト予測で積算業務を効率化</text>
  <line x1="60" y1="555" x2="180" y2="555" stroke="#3fa355" stroke-width="2"/>
  <text x="60" y="585" font-family="Inter, 'Noto Sans JP', sans-serif" font-size="18" font-weight="700" fill="#ffffff" letter-spacing="3">Dale Media</text>
  <g transform="translate(880, 235)">
    <rect x="20" y="20" width="160" height="160" fill="none" stroke="#3fa355" stroke-width="2"/>
    <line x1="20" y1="60" x2="180" y2="60" stroke="rgba(63,163,85,0.4)" stroke-width="1"/>
    <line x1="20" y1="100" x2="180" y2="100" stroke="rgba(63,163,85,0.4)" stroke-width="1"/>
    <line x1="20" y1="140" x2="180" y2="140" stroke="rgba(63,163,85,0.4)" stroke-width="1"/>
    <line x1="60" y1="20" x2="60" y2="180" stroke="rgba(63,163,85,0.4)" stroke-width="1"/>
    <line x1="100" y1="20" x2="100" y2="180" stroke="rgba(63,163,85,0.4)" stroke-width="1"/>
    <line x1="140" y1="20" x2="140" y2="180" stroke="rgba(63,163,85,0.4)" stroke-width="1"/>
    <text x="100" y="115" font-family="Inter, sans-serif" font-size="34" font-weight="900" fill="#3fa355" text-anchor="middle">¥</text>
  </g>
</svg>
