<svg xmlns="http://www.w3.org/2000/svg" viewBox="0 0 1200 630" preserveAspectRatio="xMidYMid slice">
  <defs>
    <linearGradient id="bg" x1="0" y1="0" x2="1" y2="1">
      <stop offset="0%" stop-color="#0e1f13"/>
      <stop offset="100%" stop-color="#162d1c"/>
    </linearGradient>
    <pattern id="grid" width="60" height="60" patternUnits="userSpaceOnUse">
      <path d="M 60 0 L 0 0 0 60" fill="none" stroke="rgba(63,163,85,0.08)" stroke-width="1"/>
    </pattern>
  </defs>

  <rect width="1200" height="630" fill="url(#bg)"/>
  <rect width="1200" height="630" fill="url(#grid)"/>

  <rect x="0" y="0" width="14" height="630" fill="#2d7a3e"/>
  <rect x="60" y="60" width="120" height="3" fill="#3fa355"/>

  <text x="60" y="105" font-family="Inter, 'Noto Sans JP', sans-serif"
        font-size="22" font-weight="600" fill="#3fa355" letter-spacing="4">
    BIZ-AI ／ BRANDING
  </text>

  <text x="60" y="220" font-family="'Noto Sans JP', sans-serif"
        font-size="56" font-weight="900" fill="#ffffff">
    忙しい経営者の
  </text>
  <text x="60" y="295" font-family="'Noto Sans JP', sans-serif"
        font-size="56" font-weight="900" fill="#ffffff">
    SNS発信を仕組み化
  </text>

  <text x="60" y="395" font-family="'Noto Sans JP', sans-serif"
        font-size="38" font-weight="700" fill="#3fa355">
    YouTube・ショート量産
  </text>

  <text x="60" y="460" font-family="'Noto Sans JP', sans-serif"
        font-size="22" font-weight="500" fill="rgba(255,255,255,0.65)">
    経営者の時間負担は月1時間。あとはAIが回す
  </text>

  <line x1="60" y1="555" x2="180" y2="555" stroke="#3fa355" stroke-width="2"/>
  <text x="60" y="585" font-family="Inter, 'Noto Sans JP', sans-serif"
        font-size="18" font-weight="700" fill="#ffffff" letter-spacing="3">
    Dale Media
  </text>

  <g transform="translate(880, 215)">
    <rect x="55" y="20" width="90" height="160" rx="14" fill="rgba(63,163,85,0.18)" stroke="#3fa355" stroke-width="2"/>
    <rect x="65" y="35" width="70" height="120" fill="rgba(45,122,62,0.4)"/>
    <polygon points="88,75 88,115 122,95" fill="#ffffff"/>
    <rect x="63" y="165" width="74" height="6" rx="2" fill="#3fa355"/>
    <circle cx="180" cy="40" r="6" fill="#3fa355"/>
    <circle cx="195" cy="80" r="6" fill="#3fa355" opacity="0.7"/>
    <circle cx="200" cy="125" r="6" fill="#3fa355" opacity="0.5"/>
    <circle cx="190" cy="165" r="6" fill="#3fa355" opacity="0.35"/>
  </g>
</svg>
