<svg xmlns="http://www.w3.org/2000/svg" viewBox="0 0 1200 630" preserveAspectRatio="xMidYMid slice">
  <defs>
    <linearGradient id="bg2" x1="0" y1="0" x2="1" y2="1">
      <stop offset="0%" stop-color="#0e1f13"/>
      <stop offset="100%" stop-color="#162d1c"/>
    </linearGradient>
    <pattern id="g2" width="60" height="60" patternUnits="userSpaceOnUse">
      <path d="M 60 0 L 0 0 0 60" fill="none" stroke="rgba(63,163,85,0.08)" stroke-width="1"/>
    </pattern>
  </defs>
  <rect width="1200" height="630" fill="url(#bg2)"/>
  <rect width="1200" height="630" fill="url(#g2)"/>
  <rect x="0" y="0" width="14" height="630" fill="#2d7a3e"/>
  <rect x="60" y="60" width="120" height="3" fill="#3fa355"/>
  <text x="60" y="105" font-family="Inter, 'Noto Sans JP', sans-serif" font-size="22" font-weight="600" fill="#3fa355" letter-spacing="4">CASE STUDY ／ PLATFORM</text>
  <text x="60" y="240" font-family="'Noto Sans JP', sans-serif" font-size="60" font-weight="900" fill="#ffffff">マッチングAI ×</text>
  <text x="60" y="320" font-family="'Noto Sans JP', sans-serif" font-size="60" font-weight="900" fill="#ffffff">スパム検知導入</text>
  <text x="60" y="430" font-family="'Noto Sans JP', sans-serif" font-size="42" font-weight="700" fill="#3fa355">CVR +35% / 離脱 −20%</text>
  <text x="60" y="495" font-family="'Noto Sans JP', sans-serif" font-size="22" font-weight="500" fill="rgba(255,255,255,0.65)">Web ／ iOS 横断のユーザー体験統合</text>
  <line x1="60" y1="555" x2="180" y2="555" stroke="#3fa355" stroke-width="2"/>
  <text x="60" y="585" font-family="Inter, 'Noto Sans JP', sans-serif" font-size="18" font-weight="700" fill="#ffffff" letter-spacing="3">Dale Media</text>
  <g transform="translate(880, 215)">
    <circle cx="60" cy="100" r="40" fill="rgba(45,122,62,0.3)" stroke="#3fa355" stroke-width="2"/>
    <circle cx="140" cy="60" r="40" fill="rgba(45,122,62,0.3)" stroke="#3fa355" stroke-width="2"/>
    <circle cx="140" cy="140" r="40" fill="rgba(45,122,62,0.3)" stroke="#3fa355" stroke-width="2"/>
    <line x1="60" y1="100" x2="140" y2="60" stroke="#3fa355" stroke-width="2"/>
    <line x1="60" y1="100" x2="140" y2="140" stroke="#3fa355" stroke-width="2"/>
    <line x1="140" y1="60" x2="140" y2="140" stroke="#3fa355" stroke-width="2"/>
  </g>
</svg>
