<svg xmlns="http://www.w3.org/2000/svg" viewBox="0 0 1200 630" preserveAspectRatio="xMidYMid slice">
  <defs>
    <linearGradient id="bg8" x1="0" y1="0" x2="1" y2="1">
      <stop offset="0%" stop-color="#0e1f13"/>
      <stop offset="100%" stop-color="#162d1c"/>
    </linearGradient>
    <pattern id="g8" width="60" height="60" patternUnits="userSpaceOnUse">
      <path d="M 60 0 L 0 0 0 60" fill="none" stroke="rgba(63,163,85,0.08)" stroke-width="1"/>
    </pattern>
  </defs>
  <rect width="1200" height="630" fill="url(#bg8)"/>
  <rect width="1200" height="630" fill="url(#g8)"/>
  <rect x="0" y="0" width="14" height="630" fill="#2d7a3e"/>
  <rect x="60" y="60" width="120" height="3" fill="#3fa355"/>
  <text x="60" y="105" font-family="Inter, 'Noto Sans JP', sans-serif" font-size="22" font-weight="600" fill="#3fa355" letter-spacing="4">CASE STUDY ／ BACK OFFICE</text>
  <text x="60" y="240" font-family="'Noto Sans JP', sans-serif" font-size="60" font-weight="900" fill="#ffffff">OCR × AI で</text>
  <text x="60" y="320" font-family="'Noto Sans JP', sans-serif" font-size="60" font-weight="900" fill="#ffffff">書類処理を自動化</text>
  <text x="60" y="430" font-family="'Noto Sans JP', sans-serif" font-size="42" font-weight="700" fill="#3fa355">時間 −90% / 精度 99.5%</text>
  <text x="60" y="495" font-family="'Noto Sans JP', sans-serif" font-size="22" font-weight="500" fill="rgba(255,255,255,0.65)">請求書・領収書・契約書の入力業務を解消</text>
  <line x1="60" y1="555" x2="180" y2="555" stroke="#3fa355" stroke-width="2"/>
  <text x="60" y="585" font-family="Inter, 'Noto Sans JP', sans-serif" font-size="18" font-weight="700" fill="#ffffff" letter-spacing="3">Dale Media</text>
  <g transform="translate(880, 215)">
    <rect x="30" y="20" width="120" height="160" fill="rgba(45,122,62,0.2)" stroke="#3fa355" stroke-width="2"/>
    <line x1="50" y1="50" x2="130" y2="50" stroke="#3fa355" stroke-width="1.5"/>
    <line x1="50" y1="75" x2="130" y2="75" stroke="#3fa355" stroke-width="1.5"/>
    <line x1="50" y1="100" x2="100" y2="100" stroke="#3fa355" stroke-width="1.5"/>
    <line x1="50" y1="125" x2="130" y2="125" stroke="#3fa355" stroke-width="1.5"/>
    <line x1="50" y1="150" x2="110" y2="150" stroke="#3fa355" stroke-width="1.5"/>
    <text x="90" y="200" font-family="Inter, sans-serif" font-size="20" font-weight="900" fill="#3fa355" text-anchor="middle">OCR</text>
  </g>
</svg>
