<svg xmlns="http://www.w3.org/2000/svg" viewBox="0 0 1200 630" preserveAspectRatio="xMidYMid slice">
  <rect width="1200" height="630" fill="#5d2832"/>
  <rect x="40" y="40" width="1120" height="550" fill="none" stroke="#f5f2ec" stroke-width="1.5"/>
  <rect x="60" y="60" width="1080" height="42" fill="#f5f2ec"/>
  <text x="80" y="89" font-family="Inter, sans-serif" font-size="15" font-weight="700" fill="#5d2832" letter-spacing="6">CASE STUDY ／ ISSUE 09 ／ MEDIA</text>
  <text x="1120" y="89" font-family="Inter, sans-serif" font-size="15" font-weight="700" fill="#5d2832" letter-spacing="3" text-anchor="end">2026 . 04</text>
  <text x="80" y="225" font-family="'Noto Serif JP', serif" font-size="56" font-weight="900" fill="#f5f2ec" font-style="italic">RAGで議事録から</text>
  <text x="80" y="295" font-family="'Noto Serif JP', serif" font-size="56" font-weight="900" fill="#f5f2ec" font-style="italic">記事を自動生成。</text>
  <line x1="80" y1="325" x2="240" y2="325" stroke="#f5f2ec" stroke-width="2"/>
  <text x="80" y="445" font-family="Inter, sans-serif" font-size="130" font-weight="900" fill="#f5f2ec">80<tspan font-size="64">%</tspan></text>
  <text x="80" y="485" font-family="'Noto Sans JP', sans-serif" font-size="18" font-weight="500" fill="rgba(245,242,236,0.75)">執筆時間削減 ／ 月間公開本数 ×2</text>
  <g transform="translate(820, 175)" stroke="#f5f2ec" stroke-width="1.5" fill="none">
    <rect x="0" y="0" width="240" height="280"/>
    <rect x="14" y="14" width="212" height="32" fill="#f5f2ec" stroke="none"/>
    <text x="26" y="35" font-family="Inter, sans-serif" font-size="11" font-weight="700" fill="#5d2832" letter-spacing="3">ARTICLE DRAFT ／ AUTO</text>
    <line x1="14" y1="70" x2="226" y2="70"/>
    <line x1="14" y1="98" x2="170" y2="98"/>
    <line x1="14" y1="126" x2="226" y2="126"/>
    <line x1="14" y1="154" x2="200" y2="154"/>
    <line x1="14" y1="182" x2="226" y2="182"/>
    <line x1="14" y1="210" x2="160" y2="210"/>
    <line x1="14" y1="238" x2="226" y2="238"/>
  </g>
  <text x="80" y="555" font-family="Inter, sans-serif" font-size="14" font-weight="700" fill="#f5f2ec" letter-spacing="4">DALE MEDIA ／ FEATURE</text>
  <text x="1120" y="555" font-family="Inter, sans-serif" font-size="14" font-weight="700" fill="rgba(245,242,236,0.7)" letter-spacing="3" text-anchor="end">PP. 03 ／ 12</text>
</svg>
