<svg xmlns="http://www.w3.org/2000/svg" viewBox="0 0 1200 630" preserveAspectRatio="xMidYMid slice">
  <rect width="1200" height="630" fill="#3d4654"/>

  <text x="60" y="105" font-family="Inter, 'Noto Sans JP', sans-serif" font-size="14" font-weight="700" fill="#f0d878" letter-spacing="6">BUSINESS AI ／ HOWTO</text>
  <line x1="60" y1="125" x2="180" y2="125" stroke="#f0d878" stroke-width="2"/>

  <text x="60" y="220" font-family="'Noto Serif JP', serif" font-size="60" font-weight="900" fill="#ffffff">採用動画を、</text>
  <text x="60" y="290" font-family="'Noto Serif JP', serif" font-size="60" font-weight="900" fill="#f0d878">AIで内製化。</text>

  <text x="60" y="345" font-family="'Noto Sans JP', sans-serif" font-size="20" font-weight="500" fill="rgba(240,216,120,0.8)">中小企業のための社長メッセージ動画 量産フロー</text>

  <g transform="translate(60, 410)">
    <text x="0" y="44" font-family="Inter, sans-serif" font-size="80" font-weight="900" fill="#ffffff">月</text>
    <text x="50" y="44" font-family="Inter, sans-serif" font-size="80" font-weight="900" fill="#f0d878">10</text>
    <text x="135" y="44" font-family="'Noto Sans JP', sans-serif" font-size="32" font-weight="700" fill="#ffffff">本</text>
    <text x="0" y="78" font-family="Inter, sans-serif" font-size="12" font-weight="700" fill="rgba(255,255,255,0.55)" letter-spacing="3">ARTICLE OUTPUT</text>
  </g>

  <g transform="translate(680, 130)">
    <g>
      <rect x="0" y="0" width="180" height="240" fill="#f5f0e0" rx="2"/>
      <rect x="0" y="0" width="180" height="180" fill="#5a6573"/>
      <circle cx="90" cy="80" r="32" fill="#f5f0e0"/>
      <path d="M 50 165 Q 90 120 130 165 L 130 180 L 50 180 Z" fill="#f5f0e0"/>
      <text x="14" y="208" font-family="'Noto Sans JP', sans-serif" font-size="13" font-weight="700" fill="#3d4654">代表取締役 田中</text>
      <text x="14" y="226" font-family="Inter, sans-serif" font-size="10" font-weight="500" fill="rgba(61,70,84,0.55)" letter-spacing="2">CEO MESSAGE</text>
    </g>
    <g transform="translate(200, 30)">
      <rect x="0" y="0" width="180" height="240" fill="#f5f0e0" rx="2"/>
      <rect x="0" y="0" width="180" height="180" fill="#6b7585"/>
      <circle cx="90" cy="80" r="32" fill="#f5f0e0"/>
      <path d="M 50 165 Q 90 120 130 165 L 130 180 L 50 180 Z" fill="#f5f0e0"/>
      <text x="14" y="208" font-family="'Noto Sans JP', sans-serif" font-size="13" font-weight="700" fill="#3d4654">人事部 佐藤</text>
      <text x="14" y="226" font-family="Inter, sans-serif" font-size="10" font-weight="500" fill="rgba(61,70,84,0.55)" letter-spacing="2">RECRUITMENT</text>
    </g>
  </g>

  <text x="1140" y="600" font-family="Inter, sans-serif" font-size="14" font-weight="700" fill="rgba(255,255,255,0.55)" letter-spacing="3" text-anchor="end">DALE MEDIA</text>
</svg>
