<svg xmlns="http://www.w3.org/2000/svg" viewBox="0 0 1200 630" preserveAspectRatio="xMidYMid slice">
  <rect width="1200" height="630" fill="#d29c9a"/>
  <rect x="0" y="0" width="1200" height="100" fill="#3a1f1c"/>

  <text x="60" y="62" font-family="Inter, 'Noto Sans JP', sans-serif" font-size="14" font-weight="700" fill="#d29c9a" letter-spacing="6">BUSINESS AI ／ HOWTO</text>
  <text x="1140" y="62" font-family="Inter, sans-serif" font-size="13" font-weight="500" fill="rgba(210,156,154,0.7)" letter-spacing="3" text-anchor="end">中小企業 採用ブランディング</text>

  <text x="60" y="240" font-family="'Noto Serif JP', serif" font-size="78" font-weight="900" fill="#3a1f1c">採用動画を、</text>
  <text x="60" y="335" font-family="'Noto Serif JP', serif" font-size="78" font-weight="900" fill="#3a1f1c">自社で月</text>
  <text x="540" y="335" font-family="Inter, sans-serif" font-size="120" font-weight="900" fill="#3a1f1c">10</text>
  <text x="660" y="335" font-family="'Noto Serif JP', serif" font-size="78" font-weight="900" fill="#3a1f1c">本量産。</text>

  <text x="60" y="395" font-family="'Noto Sans JP', sans-serif" font-size="22" font-weight="500" fill="rgba(58,31,28,0.75)">社長メッセージ動画をAIで内製化する手順</text>

  <g transform="translate(60, 470)" stroke="#3a1f1c" stroke-width="2">
    <rect x="0" y="0" width="40" height="40" fill="#3a1f1c"/>
    <rect x="50" y="0" width="40" height="40" fill="#3a1f1c"/>
    <rect x="100" y="0" width="40" height="40" fill="#3a1f1c"/>
    <rect x="150" y="0" width="40" height="40" fill="#3a1f1c"/>
    <rect x="200" y="0" width="40" height="40" fill="#3a1f1c"/>
    <rect x="250" y="0" width="40" height="40" fill="#3a1f1c"/>
    <rect x="300" y="0" width="40" height="40" fill="#3a1f1c"/>
    <rect x="350" y="0" width="40" height="40" fill="#3a1f1c"/>
    <rect x="400" y="0" width="40" height="40" fill="#3a1f1c"/>
    <rect x="450" y="0" width="40" height="40" fill="#3a1f1c"/>
    <rect x="500" y="0" width="40" height="40" fill="none"/>
    <rect x="550" y="0" width="40" height="40" fill="none"/>
  </g>

  <text x="1140" y="600" font-family="Inter, sans-serif" font-size="14" font-weight="700" fill="#3a1f1c" letter-spacing="3" text-anchor="end">DALE MEDIA</text>
</svg>
