<svg xmlns="http://www.w3.org/2000/svg" viewBox="0 0 1200 630" preserveAspectRatio="xMidYMid slice">
  <rect width="1200" height="630" fill="#5b7e94"/>
  <rect x="0" y="0" width="540" height="630" fill="#f0e9da"/>

  <text x="60" y="105" font-family="Inter, 'Noto Sans JP', sans-serif" font-size="14" font-weight="700" fill="#1a2a35" letter-spacing="6">CASE STUDY ／ RESTAURANT</text>

  <text x="60" y="220" font-family="'Noto Serif JP', serif" font-size="48" font-weight="900" fill="#1a2a35">予約・席次AIで</text>
  <text x="60" y="280" font-family="'Noto Serif JP', serif" font-size="48" font-weight="900" fill="#1a2a35">店舗運営を整える。</text>

  <text x="60" y="370" font-family="Inter, sans-serif" font-size="64" font-weight="900" fill="#1a2a35">−30<tspan font-size="36">%</tspan></text>
  <text x="60" y="400" font-family="'Noto Sans JP', sans-serif" font-size="15" font-weight="500" fill="rgba(26,42,53,0.7)">待ち時間</text>

  <text x="240" y="370" font-family="Inter, sans-serif" font-size="64" font-weight="900" fill="#1a2a35">+12<tspan font-size="36">%</tspan></text>
  <text x="240" y="400" font-family="'Noto Sans JP', sans-serif" font-size="15" font-weight="500" fill="rgba(26,42,53,0.7)">着席率</text>

  <g transform="translate(620, 140)">
    <rect x="0" y="0" width="500" height="380" fill="none" stroke="#f0e9da" stroke-width="2" stroke-dasharray="6 6"/>
    <text x="14" y="-10" font-family="Inter, sans-serif" font-size="12" font-weight="700" fill="#f0e9da" letter-spacing="3">FLOOR PLAN ／ AI OPTIMIZED</text>

    <g fill="#f0e9da" stroke="#1a2a35" stroke-width="2">
      <rect x="40" y="40" width="80" height="80"/>
      <rect x="160" y="40" width="120" height="60"/>
      <rect x="320" y="40" width="80" height="80"/>
      <rect x="40" y="160" width="60" height="60"/>
      <circle cx="200" cy="180" r="36"/>
      <circle cx="350" cy="170" r="32"/>
      <rect x="40" y="260" width="160" height="60"/>
      <rect x="240" y="240" width="80" height="80"/>
      <rect x="360" y="280" width="100" height="60"/>
    </g>
    <g fill="#e8a245">
      <circle cx="80" cy="80" r="6"/>
      <circle cx="220" cy="70" r="6"/>
      <circle cx="360" cy="80" r="6"/>
      <circle cx="70" cy="190" r="6"/>
      <circle cx="200" cy="180" r="6"/>
      <circle cx="120" cy="290" r="6"/>
      <circle cx="280" cy="280" r="6"/>
      <circle cx="410" cy="310" r="6"/>
    </g>
  </g>

  <text x="60" y="600" font-family="Inter, sans-serif" font-size="14" font-weight="700" fill="rgba(26,42,53,0.55)" letter-spacing="4">DALE MEDIA</text>
</svg>
