<svg xmlns="http://www.w3.org/2000/svg" viewBox="0 0 1200 630" preserveAspectRatio="xMidYMid slice">
  <defs>
    <linearGradient id="bg4" x1="0" y1="0" x2="1" y2="1">
      <stop offset="0%" stop-color="#0e1f13"/>
      <stop offset="100%" stop-color="#162d1c"/>
    </linearGradient>
    <pattern id="g4" width="60" height="60" patternUnits="userSpaceOnUse">
      <path d="M 60 0 L 0 0 0 60" fill="none" stroke="rgba(63,163,85,0.08)" stroke-width="1"/>
    </pattern>
  </defs>
  <rect width="1200" height="630" fill="url(#bg4)"/>
  <rect width="1200" height="630" fill="url(#g4)"/>
  <rect x="0" y="0" width="14" height="630" fill="#2d7a3e"/>
  <rect x="60" y="60" width="120" height="3" fill="#3fa355"/>
  <text x="60" y="105" font-family="Inter, 'Noto Sans JP', sans-serif" font-size="22" font-weight="600" fill="#3fa355" letter-spacing="4">CASE STUDY ／ RESTAURANT</text>
  <text x="60" y="240" font-family="'Noto Sans JP', sans-serif" font-size="60" font-weight="900" fill="#ffffff">予約・席次AIで</text>
  <text x="60" y="320" font-family="'Noto Sans JP', sans-serif" font-size="60" font-weight="900" fill="#ffffff">店舗運営を最適化</text>
  <text x="60" y="430" font-family="'Noto Sans JP', sans-serif" font-size="42" font-weight="700" fill="#3fa355">待ち時間 −30% / 着席率 +12%</text>
  <text x="60" y="495" font-family="'Noto Sans JP', sans-serif" font-size="22" font-weight="500" fill="rgba(255,255,255,0.65)">ピーク時の店舗オペレーションを均質化</text>
  <line x1="60" y1="555" x2="180" y2="555" stroke="#3fa355" stroke-width="2"/>
  <text x="60" y="585" font-family="Inter, 'Noto Sans JP', sans-serif" font-size="18" font-weight="700" fill="#ffffff" letter-spacing="3">Dale Media</text>
  <g transform="translate(880, 235)">
    <rect x="20" y="20" width="50" height="50" fill="rgba(45,122,62,0.3)" stroke="#3fa355" stroke-width="2"/>
    <rect x="90" y="20" width="50" height="50" fill="rgba(45,122,62,0.3)" stroke="#3fa355" stroke-width="2"/>
    <rect x="20" y="90" width="50" height="50" fill="rgba(45,122,62,0.5)" stroke="#3fa355" stroke-width="2"/>
    <rect x="90" y="90" width="50" height="50" fill="rgba(45,122,62,0.3)" stroke="#3fa355" stroke-width="2"/>
    <rect x="20" y="160" width="120" height="20" fill="rgba(45,122,62,0.6)" stroke="#3fa355" stroke-width="2"/>
  </g>
</svg>
