<svg xmlns="http://www.w3.org/2000/svg" viewBox="0 0 1200 630" preserveAspectRatio="xMidYMid slice">
  <rect width="1200" height="630" fill="#b85c3a"/>
  <polygon points="640,0 1200,0 1200,630 880,630" fill="#f3ead7"/>

  <line x1="60" y1="80" x2="180" y2="80" stroke="#f3ead7" stroke-width="3"/>
  <text x="60" y="115" font-family="Inter, 'Noto Sans JP', sans-serif" font-size="14" font-weight="700" fill="#f3ead7" letter-spacing="4">BUSINESS AI ／ ESSAY</text>

  <text x="60" y="270" font-family="'Noto Serif JP', serif" font-size="62" font-weight="900" fill="#ffffff">忙しい経営者が</text>
  <text x="60" y="345" font-family="'Noto Serif JP', serif" font-size="62" font-weight="900" fill="#ffffff">毎週動画を</text>
  <text x="60" y="420" font-family="'Noto Serif JP', serif" font-size="62" font-weight="900" fill="#3a2517">出し続ける仕組み</text>

  <text x="60" y="490" font-family="'Noto Sans JP', sans-serif" font-size="20" font-weight="500" fill="rgba(243,234,215,0.85)">AI動画 × ショート量産フロー</text>

  <g transform="translate(950, 220)">
    <rect width="180" height="280" fill="#3a2517" rx="14"/>
    <rect x="20" y="30" width="140" height="100" fill="#b85c3a" rx="6"/>
    <circle cx="90" cy="80" r="22" fill="#3a2517"/>
    <polygon points="83,67 83,93 104,80" fill="#f3ead7"/>
    <line x1="20" y1="158" x2="160" y2="158" stroke="#b85c3a" stroke-width="2"/>
    <line x1="20" y1="180" x2="120" y2="180" stroke="rgba(184,92,58,0.55)" stroke-width="2"/>
    <line x1="20" y1="202" x2="140" y2="202" stroke="rgba(184,92,58,0.4)" stroke-width="2"/>
    <rect x="20" y="225" width="140" height="34" fill="none" stroke="#b85c3a" stroke-width="2" rx="4"/>
    <text x="90" y="247" font-family="Inter, sans-serif" font-size="13" font-weight="700" fill="#b85c3a" text-anchor="middle" letter-spacing="3">PUBLISH</text>
  </g>

  <text x="1140" y="600" font-family="Inter, sans-serif" font-size="14" font-weight="700" fill="#3a2517" letter-spacing="3" text-anchor="end">DALE MEDIA</text>
</svg>
